<svg xmlns="http://www.w3.org/2000/svg" xmlns:svg="http://www.w3.org/2000/svg" xmlns:xlink="http://www.w3.org/1999/xlink" version="1.0" height="765.0003385543823pt" width="810pt" viewBox="30 392 818 771.0003385543823" ><defs><style type="text/css">
            @font-face {
                font-family: 'noto_regular';
                src: url('https://app.creately.com/diagram/assets/fonts/noto/noto-regular.woff') format('woff'),
                     url('https://app.creately.com/diagram/assets/fonts/noto/noto-regular.woff2') format('woff2');
                font-weight: normal;
                font-style: normal;
            }
        p {
            margin: 0;
        }
        </style></defs><defs><style>
            span{ display: inline-block; }
        </style></defs><g id="1iu7115s35"><g transform="translate(330 395)"><path d="M 27.499998807907104,54.99999761581421 L 27.499998807907104,54.99999761581421 L 27.499998807907104,54.99999761581421 A 27.499998807907104 27.499998807907104 0 0 1 0 27.499998807907108 L 0,27.499998807907104 L 0,27.499998807907108 A 27.499998807907104 27.499998807907104 0 0 1 27.499998807907104 0 L 107.50000357627869,0 L 107.50000357627869,0 L 107.50000357627869,0 A 27.499998807907104 27.499998807907104 0 0 1 135.0000023841858 27.499998807907104 L 135.0000023841858,27.499998807907104 L 135.0000023841858,27.499998807907104 A 27.499998807907104 27.499998807907104 0 0 1 107.50000357627869 54.99999761581421 L 27.499998807907104,54.99999761581421 Z" fill="rgba(0,149,61,1)" stroke="#00953d" stroke-width="2" stroke-linecap="round" stroke-linejoin="round"/></g><g transform="translate(382.0000011920929, 412.9999988079071) rotate(0, 15.5, 9.5)" width="31" height="19"><text text-decoration="none" x="1" fill="rgb(255, 255, 255)" font-size="10pt" font-family="Lato"  y="17">Start</text><text text-decoration="none" x="30" fill="#4b4b4b" font-size="10pt" font-family="noto_regular"  y="17"></text></g></g><g id="7q4yi1j1of"><g transform="translate(325 505)"><linearGradient id="60bd0" x1="72.50148040056229" y1="-25.500519812107086" x2="72.50148040056229" y2="51.00103962421417" gradientUnits="userSpaceOnUse"><stop offset="0%" stop-color="rgba(255,255,255,1)"/><stop offset="100%" stop-color="rgba(255,123,22,1)"/></linearGradient><rect x="0" y="0" width="145.00296080112457" height="51.00103962421417" fill="url(#60bd0)" stroke="#a84800" stroke-width="2" stroke-linecap="round" stroke-linejoin="round"/></g><g transform="translate(357.0014804005623, 521.0005198121071) rotate(0, 40.5, 9.5)" width="81" height="19"><text text-decoration="none" x="3" fill="rgb(89, 14, 1)" font-size="10pt" font-family="Lato"  y="17">Admin&#160;</text><text text-decoration="none" x="45" fill="rgb(89, 14, 1)" font-size="10pt" font-family="Lato"  y="17">Login</text><text text-decoration="none" x="78" fill="#4b4b4b" font-size="10pt" font-family="noto_regular"  y="17"></text></g></g><g id="1gzdi17kxv"><g><path d="M 400,555 L 400,590 L 400,590 L 400,590 L 400,625" fill="none" stroke="#a84800" stroke-width="2" stroke-linecap="round" stroke-linejoin="round"/><path d="M 400,625 L 405.75,616.304347826087 L 394.25,616.304347826087 Z" fill="rgb(168,72,0)" stroke="#a84800" stroke-width="2" stroke-linecap="round" stroke-linejoin="round"/></g></g><g id="5ijykmv5fy"><g transform="translate(35 865)"><linearGradient id="88adc" x1="60.00040954351425" y1="-25.500173270702362" x2="60.00040954351425" y2="51.000346541404724" gradientUnits="userSpaceOnUse"><stop offset="0%" stop-color="rgba(255,255,255,1)"/><stop offset="100%" stop-color="rgba(255,123,22,1)"/></linearGradient><rect x="0" y="0" width="120.0008190870285" height="51.000346541404724" fill="url(#88adc)" stroke="#a84800" stroke-width="2" stroke-linecap="round" stroke-linejoin="round"/></g><g transform="translate(45.50040954351425, 873.0001732707024) rotate(0, 49.5, 17.5)" width="99" height="35"><text text-decoration="none" x="4.5" fill="rgb(89, 14, 1)" font-size="10pt" font-family="Lato"  y="14">Manage&#160;</text><text text-decoration="none" x="55.5" fill="rgb(89, 14, 1)" font-size="10pt" font-family="Lato"  y="14">Sliders&#160;</text><text text-decoration="none" x="28" fill="rgb(89, 14, 1)" font-size="10pt" font-family="Lato"  y="36">Images</text><text text-decoration="none" x="71" fill="#4b4b4b" font-size="10pt" font-family="noto_regular"  y="36"></text></g></g><g id="37z4wr0lpe"><g transform="translate(330 1110)"><path d="M 25.000169277191162,50.000338554382324 L 25.000169277191162,50.000338554382324 L 25.000169277191162,50.000338554382324 A 25.000169277191162 25.000169277191162 0 0 1 0 25.000169277191166 L 0,25.000169277191162 L 0,25.000169277191166 A 25.000169277191162 25.000169277191162 0 0 1 25.000169277191162 0 L 100.00068068504333,0 L 100.00068068504333,0 L 100.00068068504333,0 A 25.000169277191162 25.000169277191162 0 0 1 125.0008499622345 25.000169277191162 L 125.0008499622345,25.000169277191162 L 125.0008499622345,25.000169277191162 A 25.000169277191162 25.000169277191162 0 0 1 100.00068068504333 50.000338554382324 L 25.000169277191162,50.000338554382324 Z" fill="rgba(224,0,11,1)" stroke="#e0000b" stroke-width="2" stroke-linecap="round" stroke-linejoin="round"/></g><g transform="translate(380.50042498111725, 1125.5001692771912) rotate(0, 12, 9.5)" width="24" height="19"><text text-decoration="none" x="0.5" fill="rgb(255, 255, 255)" font-size="10pt" font-family="Lato"  y="17">End</text><text text-decoration="none" x="23.5" fill="#4b4b4b" font-size="10pt" font-family="noto_regular"  y="17"></text></g></g><g id="bnk4hn832m"><g transform="translate(335 970)"><linearGradient id="88adc" x1="60.00040954351425" y1="-25.500173270702362" x2="60.00040954351425" y2="51.000346541404724" gradientUnits="userSpaceOnUse"><stop offset="0%" stop-color="rgba(255,255,255,1)"/><stop offset="100%" stop-color="rgba(255,123,22,1)"/></linearGradient><rect x="0" y="0" width="120.0008190870285" height="51.000346541404724" fill="url(#88adc)" stroke="#a84800" stroke-width="2" stroke-linecap="round" stroke-linejoin="round"/></g><g transform="translate(371.00040954351425, 986.0001732707024) rotate(0, 24, 9.5)" width="48" height="19"><text text-decoration="none" x="1" fill="rgb(89, 14, 1)" font-size="10pt" font-family="Lato"  y="17">Log&#160;</text><text text-decoration="none" x="26" fill="rgb(89, 14, 1)" font-size="10pt" font-family="Lato"  y="17">out</text><text text-decoration="none" x="47" fill="#4b4b4b" font-size="10pt" font-family="noto_regular"  y="17"></text></g></g><g id="7zmiq468ev"><g><path d="M 395,1020 L 395,1110" fill="none" stroke="#a84800" stroke-width="2" stroke-linecap="round" stroke-linejoin="round"/><path d="M 395,1110 L 400.75,1101.304347826087 L 389.25,1101.304347826087 Z" fill="rgb(168,72,0)" stroke="#a84800" stroke-width="2" stroke-linecap="round" stroke-linejoin="round"/></g></g><g id="1mbrtckc1i"><g><path d="M 400,450 L 400,505" fill="none" stroke="#a84800" stroke-width="2" stroke-linecap="round" stroke-linejoin="round"/><path d="M 400,505 L 405.75,496.30434782608694 L 394.25,496.30434782608694 Z" fill="rgb(168,72,0)" stroke="#a84800" stroke-width="2" stroke-linecap="round" stroke-linejoin="round"/></g></g><g id="4o7dpvgysa"><g transform="translate(325 625)"><path d="M 75,1 L 1,52.5 L 75,104 L 149,52.5 L 75,1" fill="rgb(250, 200, 150)" stroke="rgb(168, 72, 0)" stroke-width="2" stroke-linecap="round" stroke-linejoin="round" stroke-dasharray="0 0"/></g><g transform="translate(377.5, 668.5) rotate(0, 0, 0)" width="49" height="19"><text text-decoration="none" x="0" fill="#590e01" font-size="11pt" font-family="Lato"  y="17">Valid?&#160;</text><text text-decoration="none" x="44" fill="#4b4b4b" font-size="10pt" font-family="noto_regular"  y="17"></text></g></g><g id="jpfdaf5rtd"><g transform="translate(185 865)"><linearGradient id="88adc" x1="60.00040954351425" y1="-25.500173270702362" x2="60.00040954351425" y2="51.000346541404724" gradientUnits="userSpaceOnUse"><stop offset="0%" stop-color="rgba(255,255,255,1)"/><stop offset="100%" stop-color="rgba(255,123,22,1)"/></linearGradient><rect x="0" y="0" width="120.0008190870285" height="51.000346541404724" fill="url(#88adc)" stroke="#a84800" stroke-width="2" stroke-linecap="round" stroke-linejoin="round"/></g><g transform="translate(186.00040954351425, 881.0001732707024) rotate(0, 59, 9.5)" width="118" height="19"><text text-decoration="none" x="5" fill="rgb(89, 14, 1)" font-size="10pt" font-family="Lato"  y="17">Manage&#160;</text><text text-decoration="none" x="56" fill="rgb(89, 14, 1)" font-size="10pt" font-family="Lato"  y="17">Category&#160;</text><text text-decoration="none" x="113" fill="#4b4b4b" font-size="10pt" font-family="noto_regular"  y="17"></text></g></g><g id="1rymkee27b"><g transform="translate(340 865)"><linearGradient id="88adc" x1="60.00040954351425" y1="-25.500173270702362" x2="60.00040954351425" y2="51.000346541404724" gradientUnits="userSpaceOnUse"><stop offset="0%" stop-color="rgba(255,255,255,1)"/><stop offset="100%" stop-color="rgba(255,123,22,1)"/></linearGradient><rect x="0" y="0" width="120.0008190870285" height="51.000346541404724" fill="url(#88adc)" stroke="#a84800" stroke-width="2" stroke-linecap="round" stroke-linejoin="round"/></g><g transform="translate(344.50040954351425, 881.0001732707024) rotate(0, 55.5, 9.5)" width="111" height="19"><text text-decoration="none" x="3" fill="rgb(89, 14, 1)" font-size="10pt" font-family="Lato"  y="17">Manage&#160;</text><text text-decoration="none" x="54" fill="rgb(89, 14, 1)" font-size="10pt" font-family="Lato"  y="17">Products</text><text text-decoration="none" x="108" fill="#4b4b4b" font-size="10pt" font-family="noto_regular"  y="17"></text></g></g><g id="2ojqn6npfy"><g transform="translate(495 865)"><linearGradient id="88adc" x1="60.00040954351425" y1="-25.500173270702362" x2="60.00040954351425" y2="51.000346541404724" gradientUnits="userSpaceOnUse"><stop offset="0%" stop-color="rgba(255,255,255,1)"/><stop offset="100%" stop-color="rgba(255,123,22,1)"/></linearGradient><rect x="0" y="0" width="120.0008190870285" height="51.000346541404724" fill="url(#88adc)" stroke="#a84800" stroke-width="2" stroke-linecap="round" stroke-linejoin="round"/></g><g transform="translate(506.50040954351425, 873.0001732707024) rotate(0, 48.5, 17.5)" width="97" height="35"><text text-decoration="none" x="4" fill="rgb(89, 14, 1)" font-size="10pt" font-family="Lato"  y="14">Customers&#160;</text><text text-decoration="none" x="72" fill="rgb(89, 14, 1)" font-size="10pt" font-family="Lato"  y="14">List&#160;</text><text text-decoration="none" x="34" fill="rgb(89, 14, 1)" font-size="10pt" font-family="Lato"  y="36">Page</text><text text-decoration="none" x="63" fill="#4b4b4b" font-size="10pt" font-family="noto_regular"  y="36"></text></g></g><g id="79vvk42qzy"><g transform="translate(655 865)"><linearGradient id="88adc" x1="60.00040954351425" y1="-25.500173270702362" x2="60.00040954351425" y2="51.000346541404724" gradientUnits="userSpaceOnUse"><stop offset="0%" stop-color="rgba(255,255,255,1)"/><stop offset="100%" stop-color="rgba(255,123,22,1)"/></linearGradient><rect x="0" y="0" width="120.0008190870285" height="51.000346541404724" fill="url(#88adc)" stroke="#a84800" stroke-width="2" stroke-linecap="round" stroke-linejoin="round"/></g><g transform="translate(660.0004095435143, 873.0001732707024) rotate(0, 55, 17.5)" width="110" height="35"><text text-decoration="none" x="3.5" fill="rgb(89, 14, 1)" font-size="10pt" font-family="Lato"  y="14">Customer&#160;</text><text text-decoration="none" x="65.5" fill="rgb(89, 14, 1)" font-size="10pt" font-family="Lato"  y="14">Orders&#160;</text><text text-decoration="none" x="40.5" fill="rgb(89, 14, 1)" font-size="10pt" font-family="Lato"  y="36">Page</text><text text-decoration="none" x="69.5" fill="#4b4b4b" font-size="10pt" font-family="noto_regular"  y="36"></text></g></g><g id="rjh0fe33ba"><mask id="7341b" x="386" y="716" width="28" height="163" maskUnits="userSpaceOnUse"><rect x="386" y="716" width="28" height="163" fill="white" /><rect x="386.5" y="747.5" width="27" height="25" fill="black" /></mask><g mask="url(#7341b)"><path d="M 400,730 L 400,865" fill="none" stroke="#a84800" stroke-width="2" stroke-linecap="round" stroke-linejoin="round"/><path d="M 400,865 L 405.75,856.304347826087 L 394.25,856.304347826087 Z" fill="rgb(168,72,0)" stroke="#a84800" stroke-width="2" stroke-linecap="round" stroke-linejoin="round"/></g><g transform="translate(389.5, 750.5)" width="21" height="19"><text text-decoration="none" x="0.5" fill="rgb(89, 14, 1)" font-size="10pt" font-family="Lato"  y="17">Yes</text><text text-decoration="none" x="20.5" fill="#4b4b4b" font-size="10pt" font-family="noto_regular"  y="17"></text></g></g><g id="1vplsqex5x"><mask id="b0a7c" x="386" y="571" width="195" height="120.5" maskUnits="userSpaceOnUse"><rect x="386" y="571" width="195" height="120.5" fill="white" /><rect x="493" y="665" width="24" height="25" fill="black" /></mask><g mask="url(#b0a7c)"><path d="M 475,677.5 L 567,677.5 L 567,631.25 L 567,585 L 400,585" fill="none" stroke="#a84800" stroke-width="2" stroke-linecap="round" stroke-linejoin="round"/><path d="M 400,585 L 408.69565217391306,590.75 L 408.69565217391306,579.25 Z" fill="rgb(168,72,0)" stroke="#a84800" stroke-width="2" stroke-linecap="round" stroke-linejoin="round"/></g><g transform="translate(496, 668)" width="18" height="19"><text text-decoration="none" x="0" fill="rgb(89, 14, 1)" font-size="10pt" font-family="Lato"  y="17">No</text><text text-decoration="none" x="18" fill="#4b4b4b" font-size="10pt" font-family="noto_regular"  y="17"></text></g></g><g id="345xdplv5r"><g><path d="M 245,865 L 245,807.5 L 322.5,807.5 L 400,807.5 L 400,820" fill="none" stroke="#a84800" stroke-width="2" stroke-linecap="round" stroke-linejoin="round"/><path d="M 245,865 L 239.25,873.695652173913 L 250.75,873.695652173913 Z" fill="rgb(168,72,0)" stroke="#a84800" stroke-width="2" stroke-linecap="round" stroke-linejoin="round"/></g></g><g id="2paz7wh7ir"><g><path d="M 95,865 L 95,807.5 L 170,807.5 L 245,807.5 L 245,815" fill="none" stroke="#a84800" stroke-width="2" stroke-linecap="round" stroke-linejoin="round"/><path d="M 95,865 L 89.25,873.695652173913 L 100.75,873.695652173913 Z" fill="rgb(168,72,0)" stroke="#a84800" stroke-width="2" stroke-linecap="round" stroke-linejoin="round"/></g></g><g id="7gxz0y9s4g"><g><path d="M 555,865 L 555,807.5 L 477.5,807.5 L 400,807.5 L 400,810" fill="none" stroke="#a84800" stroke-width="2" stroke-linecap="round" stroke-linejoin="round"/><path d="M 555,865 L 549.25,873.695652173913 L 560.75,873.695652173913 Z" fill="rgb(168,72,0)" stroke="#a84800" stroke-width="2" stroke-linecap="round" stroke-linejoin="round"/></g></g><g id="27ym12du1r"><g><path d="M 710,865 L 710,807.5 L 632.5,807.5 L 555,807.5 L 555,810" fill="none" stroke="#a84800" stroke-width="2" stroke-linecap="round" stroke-linejoin="round"/><path d="M 710,865 L 704.25,873.695652173913 L 715.75,873.695652173913 Z" fill="rgb(168,72,0)" stroke="#a84800" stroke-width="2" stroke-linecap="round" stroke-linejoin="round"/></g></g><g id="1722ywqgnh"><g><path d="M 455,995 L 845,995 L 845,887.5 L 845,780 L 772.5,780 L 700,780 L 400,780" fill="none" stroke="#a84800" stroke-width="2" stroke-linecap="round" stroke-linejoin="round"/><path d="M 455,995 L 446.30434782608694,989.25 L 446.30434782608694,1000.75 Z" fill="rgb(168,72,0)" stroke="#a84800" stroke-width="2" stroke-linecap="round" stroke-linejoin="round"/></g></g></svg>