<svg xmlns="http://www.w3.org/2000/svg" xmlns:svg="http://www.w3.org/2000/svg" xmlns:xlink="http://www.w3.org/1999/xlink" version="1.0" height="665.0303363800049pt" width="830.287971496582pt" viewBox="289.75 447 838.287971496582 671.0303363800049" ><defs><style type="text/css">
            @font-face {
                font-family: 'noto_regular';
                src: url('https://app.creately.com/diagram/assets/fonts/noto/noto-regular.woff') format('woff'),
                     url('https://app.creately.com/diagram/assets/fonts/noto/noto-regular.woff2') format('woff2');
                font-weight: normal;
                font-style: normal;
            }
        p {
            margin: 0;
        }
        </style></defs><defs><style>
            span{ display: inline-block; }
        </style></defs><g id="cg27fy8uff"><g transform="translate(294.75 450)"><rect x="0" y="0" width="830.287971496582" height="665.0303363800049" fill="rgba(181,245,244,1)" stroke="#b5f5f4" stroke-width="1.5" stroke-linecap="round" stroke-linejoin="round"/></g></g><g id="7quxjgicoh"><g transform="translate(570 525)"><rect x="0" y="0" width="325.00001192092896" height="489.99999165534973" fill="rgba(54,215,220,1)" stroke="#005b7e" stroke-width="1.5" stroke-linecap="round" stroke-linejoin="round"/></g><g transform="translate(627.5000059604645, 500) rotate(0, 105, 20)" width="210" height="20"><text text-decoration="none" x="13" fill="rgb(0, 0, 0)" font-size="13pt" font-family="Lato"  y="16">Online&#160;</text><text text-decoration="none" x="64" fill="rgb(0, 0, 0)" font-size="13pt" font-family="Lato"  y="16">Shopping&#160;</text><text text-decoration="none" x="140" fill="rgb(0, 0, 0)" font-size="13pt" font-family="Lato"  y="16">System</text><text text-decoration="none" x="197" fill="#4b4b4b" font-size="10pt" font-family="noto_regular"  y="16"></text></g></g><g id="2iq0800902"><g transform="translate(470 570)"><ellipse cx="20.3985" cy="10.10075" rx="10.19925" ry="10.10075" fill="rgba(0,74,128,1)" stroke="#003562" stroke-width="1.5" stroke-linecap="round" stroke-linejoin="round"/><path d="M 20.3985,20.2015 L 20.3985,48.483599999999996 L 40.797,80.806 M 20.3985,48.483599999999996 L 0,80.806 M 2.03985,30.30225 L 38.757149999999996,30.30225" fill="none" stroke="#003562" stroke-width="1.5" stroke-linecap="round" stroke-linejoin="round"/><rect x="0" y="0" width="40.797" height="80.806" fill="rgba(255,255,255,0.01)" stroke="rgba(255,255,255,0.01)" stroke-width="1.5" stroke-linecap="round" stroke-linejoin="round"/></g><g transform="translate(455.8985, 655.806) rotate(0, 34.5, 0)" width="69" height="51"><text text-decoration="none" x="2.5" fill="rgb(0, 0, 0)" font-size="10pt" font-family="Lato"  y="12">Registered&#160;</text><text text-decoration="none" x="66.5" fill="rgb(0, 0, 0)" font-size="10pt" font-family="Lato"  y="12"></text><text text-decoration="none" x="7" fill="rgb(0, 0, 0)" font-size="10pt" font-family="Lato"  y="31">Customer</text><text text-decoration="none" x="62" fill="#4b4b4b" font-size="10pt" font-family="noto_regular"  y="31"></text></g></g><g id="13s3637w9p"><g transform="translate(335 715)"><ellipse cx="20.3985" cy="10.10075" rx="10.19925" ry="10.10075" fill="rgba(0,74,128,1)" stroke="#003562" stroke-width="1.5" stroke-linecap="round" stroke-linejoin="round"/><path d="M 20.3985,20.2015 L 20.3985,48.483599999999996 L 40.797,80.806 M 20.3985,48.483599999999996 L 0,80.806 M 2.03985,30.30225 L 38.757149999999996,30.30225" fill="none" stroke="#003562" stroke-width="1.5" stroke-linecap="round" stroke-linejoin="round"/><rect x="0" y="0" width="40.797" height="80.806" fill="rgba(255,255,255,0.01)" stroke="rgba(255,255,255,0.01)" stroke-width="1.5" stroke-linecap="round" stroke-linejoin="round"/></g><g transform="translate(323.8985, 800.806) rotate(0, 31.5, 0)" width="63" height="35"><text text-decoration="none" x="18.5" fill="rgb(0, 0, 0)" font-size="10pt" font-family="Lato"  y="12">Web&#160;</text><text text-decoration="none" x="4" fill="rgb(0, 0, 0)" font-size="10pt" font-family="Lato"  y="31">Customer</text><text text-decoration="none" x="59" fill="#4b4b4b" font-size="10pt" font-family="noto_regular"  y="31"></text></g></g><g id="1skfzyjqak"><g transform="translate(465 880)"><ellipse cx="20.3985" cy="10.10075" rx="10.19925" ry="10.10075" fill="rgba(0,74,128,1)" stroke="#003562" stroke-width="1.5" stroke-linecap="round" stroke-linejoin="round"/><path d="M 20.3985,20.2015 L 20.3985,48.483599999999996 L 40.797,80.806 M 20.3985,48.483599999999996 L 0,80.806 M 2.03985,30.30225 L 38.757149999999996,30.30225" fill="none" stroke="#003562" stroke-width="1.5" stroke-linecap="round" stroke-linejoin="round"/><rect x="0" y="0" width="40.797" height="80.806" fill="rgba(255,255,255,0.01)" stroke="rgba(255,255,255,0.01)" stroke-width="1.5" stroke-linecap="round" stroke-linejoin="round"/></g><g transform="translate(453.8985, 965.806) rotate(0, 31.5, 0)" width="63" height="35"><text text-decoration="none" x="18.5" fill="rgb(0, 0, 0)" font-size="10pt" font-family="Lato"  y="12">New</text><text text-decoration="none" x="44.5" fill="rgb(0, 0, 0)" font-size="10pt" font-family="Lato"  y="12"></text><text text-decoration="none" x="4" fill="rgb(0, 0, 0)" font-size="10pt" font-family="Lato"  y="31">Customer</text><text text-decoration="none" x="59" fill="#4b4b4b" font-size="10pt" font-family="noto_regular"  y="31"></text></g></g><g id="1igg1tukrg"><g transform="translate(1020 525)"><ellipse cx="20.3985" cy="10.10075" rx="10.19925" ry="10.10075" fill="rgba(0,74,128,1)" stroke="#003562" stroke-width="1.5" stroke-linecap="round" stroke-linejoin="round"/><path d="M 20.3985,20.2015 L 20.3985,48.483599999999996 L 40.797,80.806 M 20.3985,48.483599999999996 L 0,80.806 M 2.03985,30.30225 L 38.757149999999996,30.30225" fill="none" stroke="#003562" stroke-width="1.5" stroke-linecap="round" stroke-linejoin="round"/><rect x="0" y="0" width="40.797" height="80.806" fill="rgba(255,255,255,0.01)" stroke="rgba(255,255,255,0.01)" stroke-width="1.5" stroke-linecap="round" stroke-linejoin="round"/></g><g transform="translate(992.8985, 610.806) rotate(0, 47.5, 0)" width="95" height="51"><text text-decoration="none" x="16" fill="rgb(0, 0, 0)" font-size="10pt" font-family="Lato"  y="12">&#x3C;&#x3C;Service&#x3E;</text><text text-decoration="none" x="79" fill="rgb(0, 0, 0)" font-size="10pt" font-family="Lato"  y="12"></text><text text-decoration="none" x="6.5" fill="rgb(0, 0, 0)" font-size="10pt" font-family="Lato"  y="31">Authentication</text><text text-decoration="none" x="88.5" fill="#4b4b4b" font-size="10pt" font-family="noto_regular"  y="31"></text></g></g><g id="2kcyotp5m4"><g transform="translate(1015 670)"><ellipse cx="20.3985" cy="10.10075" rx="10.19925" ry="10.10075" fill="rgba(0,74,128,1)" stroke="#003562" stroke-width="1.5" stroke-linecap="round" stroke-linejoin="round"/><path d="M 20.3985,20.2015 L 20.3985,48.483599999999996 L 40.797,80.806 M 20.3985,48.483599999999996 L 0,80.806 M 2.03985,30.30225 L 38.757149999999996,30.30225" fill="none" stroke="#003562" stroke-width="1.5" stroke-linecap="round" stroke-linejoin="round"/><rect x="0" y="0" width="40.797" height="80.806" fill="rgba(255,255,255,0.01)" stroke="rgba(255,255,255,0.01)" stroke-width="1.5" stroke-linecap="round" stroke-linejoin="round"/></g><g transform="translate(1008.3985, 755.806) rotate(0, 27, 0)" width="54" height="35"><text text-decoration="none" x="6" fill="rgb(0, 0, 0)" font-size="10pt" font-family="Lato"  y="12">Identity&#160;</text><text text-decoration="none" x="4" fill="rgb(0, 0, 0)" font-size="10pt" font-family="Lato"  y="31">Provider</text><text text-decoration="none" x="50" fill="#4b4b4b" font-size="10pt" font-family="noto_regular"  y="31"></text></g></g><g id="6zpeb9v3j9"><g transform="translate(1020 800)"><ellipse cx="20.3985" cy="10.10075" rx="10.19925" ry="10.10075" fill="rgba(0,74,128,1)" stroke="#003562" stroke-width="1.5" stroke-linecap="round" stroke-linejoin="round"/><path d="M 20.3985,20.2015 L 20.3985,48.483599999999996 L 40.797,80.806 M 20.3985,48.483599999999996 L 0,80.806 M 2.03985,30.30225 L 38.757149999999996,30.30225" fill="none" stroke="#003562" stroke-width="1.5" stroke-linecap="round" stroke-linejoin="round"/><rect x="0" y="0" width="40.797" height="80.806" fill="rgba(255,255,255,0.01)" stroke="rgba(255,255,255,0.01)" stroke-width="1.5" stroke-linecap="round" stroke-linejoin="round"/></g><g transform="translate(1011.8985, 885.806) rotate(0, 28.5, 0)" width="57" height="67"><text text-decoration="none" x="12" fill="rgb(0, 0, 0)" font-size="10pt" font-family="Lato"  y="12">Credit&#160;</text><text text-decoration="none" x="2" fill="rgb(0, 0, 0)" font-size="10pt" font-family="Lato"  y="28">Payment&#160;</text><text text-decoration="none" x="55" fill="rgb(0, 0, 0)" font-size="10pt" font-family="Lato"  y="28"></text><text text-decoration="none" x="7.5" fill="rgb(0, 0, 0)" font-size="10pt" font-family="Lato"  y="47">Service</text><text text-decoration="none" x="49.5" fill="#4b4b4b" font-size="10pt" font-family="noto_regular"  y="47"></text></g></g><g id="1wku181kmf"><g transform="translate(1025 955)"><ellipse cx="20.3985" cy="10.10075" rx="10.19925" ry="10.10075" fill="rgba(0,74,128,1)" stroke="#003562" stroke-width="1.5" stroke-linecap="round" stroke-linejoin="round"/><path d="M 20.3985,20.2015 L 20.3985,48.483599999999996 L 40.797,80.806 M 20.3985,48.483599999999996 L 0,80.806 M 2.03985,30.30225 L 38.757149999999996,30.30225" fill="none" stroke="#003562" stroke-width="1.5" stroke-linecap="round" stroke-linejoin="round"/><rect x="0" y="0" width="40.797" height="80.806" fill="rgba(255,255,255,0.01)" stroke="rgba(255,255,255,0.01)" stroke-width="1.5" stroke-linecap="round" stroke-linejoin="round"/></g><g transform="translate(1023.8985, 1040.806) rotate(0, 21.5, 0)" width="43" height="19"><text text-decoration="none" x="2.5" fill="rgb(0, 0, 0)" font-size="10pt" font-family="Lato"  y="15">Paypal</text><text text-decoration="none" x="40.5" fill="#4b4b4b" font-size="10pt" font-family="noto_regular"  y="15"></text></g></g><g id="20v1ygmp50"><g transform="translate(675 550)"><ellipse cx="57.499847412109375" cy="29.99970245361328" rx="57.499847412109375" ry="29.99970245361328" fill="rgba(251,239,132,1)" stroke="#004a80" stroke-width="1.5" stroke-linecap="round" stroke-linejoin="round"/></g><g transform="translate(695.9998474121094, 570.4997024536133) rotate(0, 36.5, 9.5)" width="73" height="19"><text text-decoration="none" x="4.5" fill="rgb(0, 0, 0)" font-size="10pt" font-family="Lato"  y="15">View&#160;</text><text text-decoration="none" x="35.5" fill="rgb(0, 0, 0)" font-size="10pt" font-family="Lato"  y="15">Items</text><text text-decoration="none" x="68.5" fill="#4b4b4b" font-size="10pt" font-family="noto_regular"  y="15"></text></g></g><g id="24updjy9ap"><g><path d="M 510,600 L 675,580" fill="none" stroke="#000000" stroke-width="1.5" stroke-linecap="round" stroke-linejoin="round"/></g></g><g id="29adyd4d9s"><g transform="translate(675 675)"><ellipse cx="57.499847412109375" cy="29.99970245361328" rx="57.499847412109375" ry="29.99970245361328" fill="rgba(251,239,132,1)" stroke="#003562" stroke-width="1.5" stroke-linecap="round" stroke-linejoin="round"/></g><g transform="translate(683.4998474121094, 695.4997024536133) rotate(0, 49, 9.5)" width="98" height="19"><text text-decoration="none" x="4.5" fill="rgb(0, 0, 0)" font-size="10pt" font-family="Lato"  y="15">Make&#160;</text><text text-decoration="none" x="39.5" fill="rgb(0, 0, 0)" font-size="10pt" font-family="Lato"  y="15">Purchase</text><text text-decoration="none" x="93.5" fill="#4b4b4b" font-size="10pt" font-family="noto_regular"  y="15"></text></g></g><g id="2lwyxlu08l"><g><path d="M 510,600 L 675,705" fill="none" stroke="#000000" stroke-width="1.5" stroke-linecap="round" stroke-linejoin="round"/></g></g><g id="272qu4qs5t"><g transform="translate(675 930)"><ellipse cx="57.499847412109375" cy="29.99970245361328" rx="57.499847412109375" ry="29.99970245361328" fill="rgba(251,239,132,1)" stroke="#003562" stroke-width="1.5" stroke-linecap="round" stroke-linejoin="round"/></g><g transform="translate(684.9998474121094, 950.4997024536133) rotate(0, 47.5, 9.5)" width="95" height="19"><text text-decoration="none" x="6.5" fill="rgb(0, 0, 0)" font-size="10pt" font-family="Lato"  y="15">Client&#160;</text><text text-decoration="none" x="41.5" fill="rgb(0, 0, 0)" font-size="10pt" font-family="Lato"  y="15">Register</text><text text-decoration="none" x="88.5" fill="#4b4b4b" font-size="10pt" font-family="noto_regular"  y="15"></text></g></g><g id="2erlz2qohw"><g><path d="M 505,910 L 675,960" fill="none" stroke="#000000" stroke-width="1.5" stroke-linecap="round" stroke-linejoin="round"/></g></g><g id="1fi5vdfmtd"><g transform="translate(675 810)"><ellipse cx="57.499847412109375" cy="29.99970245361328" rx="57.499847412109375" ry="29.99970245361328" fill="rgba(251,239,132,1)" stroke="#003562" stroke-width="1.5" stroke-linecap="round" stroke-linejoin="round"/></g><g transform="translate(701.9998474121094, 830.4997024536133) rotate(0, 30.5, 9.5)" width="61" height="19"><text text-decoration="none" x="3.5" fill="rgb(0, 0, 0)" font-size="10pt" font-family="Lato"  y="15">Checkout</text><text text-decoration="none" x="57.5" fill="#4b4b4b" font-size="10pt" font-family="noto_regular"  y="15"></text></g></g><g id="5gjpvircvn"><g><path d="M 1015,750 L 780,825" fill="none" stroke="#000000" stroke-width="1.5" stroke-linecap="round" stroke-linejoin="round"/></g></g><g id="22jx1imzv6"><g><path d="M 1020,555 L 790,580" fill="none" stroke="#000000" stroke-width="1.5" stroke-linecap="round" stroke-linejoin="round"/></g></g><g id="k0f81spz29"><g><path d="M 1020,555 L 760,815" fill="none" stroke="#000000" stroke-width="1.5" stroke-linecap="round" stroke-linejoin="round"/></g></g><g id="qa8vvgdzke"><g><path d="M 1020,555 L 790,960" fill="none" stroke="#000000" stroke-width="1.5" stroke-linecap="round" stroke-linejoin="round"/></g></g><g id="7e1sx8h9uu"><g><path d="M 505,910 L 685,595" fill="none" stroke="#000000" stroke-width="1.5" stroke-linecap="round" stroke-linejoin="round"/></g></g><g id="2mjdte3osg"><mask id="97544" x="717" y="597" width="26" height="91" maskUnits="userSpaceOnUse"><rect x="717" y="597" width="26" height="91" fill="white" /><rect x="685" y="630" width="90" height="25" fill="black" /><rect x="685" y="630" width="90" height="25" fill="black" /></mask><g mask="url(#97544)"><path d="M 730,675 L 730,610" fill="none" stroke="#ffffff" stroke-width="1.5" stroke-linecap="round" stroke-linejoin="round" stroke-dasharray="5 5 2 5"/><path d="M 723.4659090909091,616.993006993007 Q 730,613.4965034965035 730,610 M 736.5340909090909,616.993006993007 Q 730,613.4965034965035 730,610 M 730,610 Z" fill="none" stroke="#ffffff" stroke-width="1.5" stroke-linecap="round" stroke-linejoin="round"/></g><g transform="translate(688, 633)" width="84" height="19"><text text-decoration="none" x="10.5" fill="rgb(255, 255, 255)" font-size="9pt" font-family="Lato"  y="15">&#x3C;&#x3C;include&#x3E;&#x3E;</text><text text-decoration="none" x="73.5" fill="#4b4b4b" font-size="10pt" font-family="noto_regular"  y="15"></text></g><g transform="translate(688, 633)" width="84" height="19"><text text-decoration="none" x="10.5" fill="rgb(0, 0, 0)" font-size="9pt" font-family="Lato"  y="15">&#x3C;&#x3C;include&#x3E;&#x3E;</text><text text-decoration="none" x="73.5" fill="#4b4b4b" font-size="10pt" font-family="noto_regular"  y="15"></text></g></g><g id="1ynk96lfwz"><mask id="bcd00" x="717" y="722" width="26" height="101" maskUnits="userSpaceOnUse"><rect x="717" y="722" width="26" height="101" fill="white" /><rect x="685" y="760" width="90" height="25" fill="black" /><rect x="685" y="760" width="90" height="25" fill="black" /></mask><g mask="url(#bcd00)"><path d="M 730,735 L 730,810" fill="none" stroke="#ffffff" stroke-width="1.5" stroke-linecap="round" stroke-linejoin="round" stroke-dasharray="5 5"/><path d="M 736.5340909090909,803.006993006993 Q 730,806.5034965034965 730,810 M 723.4659090909091,803.006993006993 Q 730,806.5034965034965 730,810 M 730,810 Z" fill="none" stroke="#ffffff" stroke-width="1.5" stroke-linecap="round" stroke-linejoin="round"/></g><g transform="translate(688, 763)" width="84" height="19"><text text-decoration="none" x="10.5" fill="rgb(255, 255, 255)" font-size="9pt" font-family="Lato"  y="15">&#x3C;&#x3C;include&#x3E;&#x3E;</text><text text-decoration="none" x="73.5" fill="#4b4b4b" font-size="10pt" font-family="noto_regular"  y="15"></text></g><g transform="translate(688, 763)" width="84" height="19"><text text-decoration="none" x="10.5" fill="rgb(0, 0, 0)" font-size="9pt" font-family="Lato"  y="15">&#x3C;&#x3C;include&#x3E;&#x3E;</text><text text-decoration="none" x="73.5" fill="#4b4b4b" font-size="10pt" font-family="noto_regular"  y="15"></text></g></g><g id="1typdq9niz"><g><path d="M 465,910 L 375,795" fill="none" stroke="#000000" stroke-width="1.5" stroke-linecap="round" stroke-linejoin="round"/><path d="M 375,795 L 375.8310485194943,805.3916420785131 L 384.88735603108154,798.3040970694449 Z" fill="rgb(0,0,0)" stroke="#000000" stroke-width="1.5" stroke-linecap="round" stroke-linejoin="round"/></g></g><g id="26j16tz536"><g><path d="M 470,600 L 375,745" fill="none" stroke="#000000" stroke-width="1.5" stroke-linecap="round" stroke-linejoin="round"/><path d="M 375,745 L 384.5750972108303,740.8775759397136 L 374.95579422066317,734.5752739806385 Z" fill="rgb(0,0,0)" stroke="#000000" stroke-width="1.5" stroke-linecap="round" stroke-linejoin="round"/></g></g><g id="1sq5377i0k"><g><path d="M 1025,985 L 780,855" fill="none" stroke="#000000" stroke-width="1.5" stroke-linecap="round" stroke-linejoin="round"/></g></g><g id="1lvnbag8f8"><g><path d="M 1020,830 L 790,840" fill="none" stroke="#000000" stroke-width="1.5" stroke-linecap="round" stroke-linejoin="round"/></g></g><g id="castnugt6c"><g><path d="M 1015,700 L 780,595" fill="none" stroke="#000000" stroke-width="1.5" stroke-linecap="round" stroke-linejoin="round"/></g></g></svg>